<?xml version="1.0" encoding="UTF-8"?>
<svg width="180px" height="180px" viewBox="0 0 180 180" version="1.1" xmlns="http://www.w3.org/2000/svg" xmlns:xlink="http://www.w3.org/1999/xlink">
    <title>umamisender</title>
    <g id="umamisender" stroke="none" stroke-width="1" fill="none" fill-rule="evenodd" fill-opacity="0.85">
        <path d="M107.406209,180 C113.933537,180 118.878556,174.263813 122.043377,165.560284 L177.427634,21.1647466 C179.009538,16.6154968 180,12.8572007 180,9.69237313 C180,3.56040573 176.439197,0 170.306028,0 C167.142221,0 163.38292,0.989046602 158.833681,2.57156168 L13.4506389,58.3515215 C6.1319536,60.9230832 0,65.8681136 0,72.5933469 C0,81.2964709 6.52753084,84.0657204 15.0329479,86.6372821 L58.5492801,99.6921706 C64.878921,101.670061 68.0437415,101.867952 71.9997164,97.9119677 L166.153784,10.2858416 C167.340718,9.09890466 168.724124,9.49448279 169.714587,10.2858416 C170.899495,11.2746857 170.703023,12.6593104 169.714587,13.8462473 L82.4832222,108.593185 C78.9228245,112.351481 78.7249346,115.318418 80.5051335,121.845964 L93.1644154,163.779879 C95.9336586,172.878378 98.505012,180 107.406209,180 Z" id="Path" fill="currentColor" fill-rule="nonzero"></path>
    </g>
</svg>